<mxfile host="65bd71144e">
    <diagram name="Sivu-1" id="5oFi4ZcT5pwp0T2xpWBY">
        <mxGraphModel dx="873" dy="688" grid="1" gridSize="10" guides="1" tooltips="1" connect="1" arrows="1" fold="1" page="1" pageScale="1" pageWidth="827" pageHeight="1169" math="0" shadow="0">
            <root>
                <mxCell id="0"/>
                <mxCell id="1" parent="0"/>
                <mxCell id="3TavXXkqEo7pSJpgyG1O-37" value="Store.js&#10;" style="swimlane;fontStyle=1;align=center;verticalAlign=top;childLayout=stackLayout;horizontal=1;startSize=25.066666666666666;horizontalStack=0;resizeParent=1;resizeParentMax=0;resizeLast=0;collapsible=0;marginBottom=0;" parent="1" vertex="1">
                    <mxGeometry x="26" y="8" width="194" height="188.06666666666666" as="geometry"/>
                </mxCell>
                <mxCell id="3TavXXkqEo7pSJpgyG1O-38" value="+ name : string" style="text;strokeColor=none;fillColor=none;align=left;verticalAlign=top;spacingLeft=4;spacingRight=4;overflow=hidden;rotatable=0;points=[[0,0.5],[1,0.5]];portConstraint=eastwest;" parent="3TavXXkqEo7pSJpgyG1O-37" vertex="1">
                    <mxGeometry y="25.066666666666666" width="194" height="25" as="geometry"/>
                </mxCell>
                <mxCell id="3TavXXkqEo7pSJpgyG1O-39" value="+ version : string" style="text;strokeColor=none;fillColor=none;align=left;verticalAlign=top;spacingLeft=4;spacingRight=4;overflow=hidden;rotatable=0;points=[[0,0.5],[1,0.5]];portConstraint=eastwest;" parent="3TavXXkqEo7pSJpgyG1O-37" vertex="1">
                    <mxGeometry y="50.06666666666666" width="194" height="25" as="geometry"/>
                </mxCell>
                <mxCell id="3TavXXkqEo7pSJpgyG1O-40" value="+ author : string" style="text;strokeColor=none;fillColor=none;align=left;verticalAlign=top;spacingLeft=4;spacingRight=4;overflow=hidden;rotatable=0;points=[[0,0.5],[1,0.5]];portConstraint=eastwest;" parent="3TavXXkqEo7pSJpgyG1O-37" vertex="1">
                    <mxGeometry y="75.06666666666666" width="194" height="25" as="geometry"/>
                </mxCell>
                <mxCell id="3TavXXkqEo7pSJpgyG1O-41" value="+ dependencies : string[]" style="text;strokeColor=none;fillColor=none;align=left;verticalAlign=top;spacingLeft=4;spacingRight=4;overflow=hidden;rotatable=0;points=[[0,0.5],[1,0.5]];portConstraint=eastwest;" parent="3TavXXkqEo7pSJpgyG1O-37" vertex="1">
                    <mxGeometry y="100.06666666666666" width="194" height="25" as="geometry"/>
                </mxCell>
                <mxCell id="3TavXXkqEo7pSJpgyG1O-42" value="+ isPublic : bool" style="text;strokeColor=none;fillColor=none;align=left;verticalAlign=top;spacingLeft=4;spacingRight=4;overflow=hidden;rotatable=0;points=[[0,0.5],[1,0.5]];portConstraint=eastwest;" parent="3TavXXkqEo7pSJpgyG1O-37" vertex="1">
                    <mxGeometry y="125.06666666666666" width="194" height="25" as="geometry"/>
                </mxCell>
                <mxCell id="3TavXXkqEo7pSJpgyG1O-43" value="+ description : string" style="text;strokeColor=none;fillColor=none;align=left;verticalAlign=top;spacingLeft=4;spacingRight=4;overflow=hidden;rotatable=0;points=[[0,0.5],[1,0.5]];portConstraint=eastwest;" parent="3TavXXkqEo7pSJpgyG1O-37" vertex="1">
                    <mxGeometry y="150.06666666666666" width="194" height="25" as="geometry"/>
                </mxCell>
                <mxCell id="3TavXXkqEo7pSJpgyG1O-44" style="line;strokeWidth=1;fillColor=none;align=left;verticalAlign=middle;spacingTop=-1;spacingLeft=3;spacingRight=3;rotatable=0;labelPosition=right;points=[];portConstraint=eastwest;strokeColor=inherit;" parent="3TavXXkqEo7pSJpgyG1O-37" vertex="1">
                    <mxGeometry y="175.06666666666666" width="194" height="13" as="geometry"/>
                </mxCell>
                <mxCell id="3TavXXkqEo7pSJpgyG1O-108" value="App" style="rounded=1;whiteSpace=wrap;html=1;" parent="1" vertex="1">
                    <mxGeometry x="340" y="150" width="140" height="70" as="geometry"/>
                </mxCell>
                <mxCell id="3TavXXkqEo7pSJpgyG1O-120" style="rounded=0;orthogonalLoop=1;jettySize=auto;html=1;exitX=1;exitY=0;exitDx=0;exitDy=0;entryX=0;entryY=1;entryDx=0;entryDy=0;" parent="1" source="3TavXXkqEo7pSJpgyG1O-109" target="3TavXXkqEo7pSJpgyG1O-108" edge="1">
                    <mxGeometry relative="1" as="geometry"/>
                </mxCell>
                <mxCell id="3TavXXkqEo7pSJpgyG1O-109" value="Header" style="rounded=1;whiteSpace=wrap;html=1;" parent="1" vertex="1">
                    <mxGeometry x="90" y="320" width="140" height="70" as="geometry"/>
                </mxCell>
                <mxCell id="3TavXXkqEo7pSJpgyG1O-123" style="edgeStyle=orthogonalEdgeStyle;rounded=0;orthogonalLoop=1;jettySize=auto;html=1;" parent="1" source="3TavXXkqEo7pSJpgyG1O-110" target="3TavXXkqEo7pSJpgyG1O-109" edge="1">
                    <mxGeometry relative="1" as="geometry"/>
                </mxCell>
                <mxCell id="3TavXXkqEo7pSJpgyG1O-110" value="SearchBar" style="rounded=1;whiteSpace=wrap;html=1;" parent="1" vertex="1">
                    <mxGeometry x="90" y="440" width="140" height="70" as="geometry"/>
                </mxCell>
                <mxCell id="3" style="edgeStyle=none;html=1;entryX=0.5;entryY=1;entryDx=0;entryDy=0;" parent="1" source="3TavXXkqEo7pSJpgyG1O-111" target="2" edge="1">
                    <mxGeometry relative="1" as="geometry"/>
                </mxCell>
                <mxCell id="3TavXXkqEo7pSJpgyG1O-111" value="Article" style="rounded=1;whiteSpace=wrap;html=1;" parent="1" vertex="1">
                    <mxGeometry x="340" y="440" width="140" height="70" as="geometry"/>
                </mxCell>
                <mxCell id="3TavXXkqEo7pSJpgyG1O-122" style="rounded=0;orthogonalLoop=1;jettySize=auto;html=1;entryX=1;entryY=1;entryDx=0;entryDy=0;" parent="1" source="3TavXXkqEo7pSJpgyG1O-112" target="3TavXXkqEo7pSJpgyG1O-108" edge="1">
                    <mxGeometry relative="1" as="geometry"/>
                </mxCell>
                <mxCell id="3TavXXkqEo7pSJpgyG1O-112" value="Aside" style="rounded=1;whiteSpace=wrap;html=1;" parent="1" vertex="1">
                    <mxGeometry x="590" y="320" width="140" height="70" as="geometry"/>
                </mxCell>
                <mxCell id="3TavXXkqEo7pSJpgyG1O-124" style="edgeStyle=orthogonalEdgeStyle;rounded=0;orthogonalLoop=1;jettySize=auto;html=1;" parent="1" source="3TavXXkqEo7pSJpgyG1O-113" target="3TavXXkqEo7pSJpgyG1O-111" edge="1">
                    <mxGeometry relative="1" as="geometry"/>
                </mxCell>
                <mxCell id="3TavXXkqEo7pSJpgyG1O-113" value="PostCard" style="rounded=1;whiteSpace=wrap;html=1;" parent="1" vertex="1">
                    <mxGeometry x="340" y="540" width="140" height="70" as="geometry"/>
                </mxCell>
                <mxCell id="3TavXXkqEo7pSJpgyG1O-126" style="edgeStyle=orthogonalEdgeStyle;rounded=0;orthogonalLoop=1;jettySize=auto;html=1;" parent="1" source="3TavXXkqEo7pSJpgyG1O-125" target="3TavXXkqEo7pSJpgyG1O-112" edge="1">
                    <mxGeometry relative="1" as="geometry"/>
                </mxCell>
                <mxCell id="3TavXXkqEo7pSJpgyG1O-125" value="Subreddit list &quot;ul&quot;" style="rounded=1;whiteSpace=wrap;html=1;" parent="1" vertex="1">
                    <mxGeometry x="590" y="440" width="140" height="70" as="geometry"/>
                </mxCell>
                <mxCell id="3TavXXkqEo7pSJpgyG1O-128" style="edgeStyle=orthogonalEdgeStyle;rounded=0;orthogonalLoop=1;jettySize=auto;html=1;" parent="1" source="3TavXXkqEo7pSJpgyG1O-127" target="3TavXXkqEo7pSJpgyG1O-113" edge="1">
                    <mxGeometry relative="1" as="geometry"/>
                </mxCell>
                <mxCell id="3TavXXkqEo7pSJpgyG1O-127" value="Comment" style="rounded=1;whiteSpace=wrap;html=1;" parent="1" vertex="1">
                    <mxGeometry x="340" y="640" width="140" height="70" as="geometry"/>
                </mxCell>
                <mxCell id="3TavXXkqEo7pSJpgyG1O-130" style="edgeStyle=orthogonalEdgeStyle;rounded=0;orthogonalLoop=1;jettySize=auto;html=1;" parent="1" source="3TavXXkqEo7pSJpgyG1O-129" target="3TavXXkqEo7pSJpgyG1O-125" edge="1">
                    <mxGeometry relative="1" as="geometry"/>
                </mxCell>
                <mxCell id="3TavXXkqEo7pSJpgyG1O-129" value="Subreddit card &quot;li&quot;" style="rounded=1;whiteSpace=wrap;html=1;" parent="1" vertex="1">
                    <mxGeometry x="590" y="540" width="140" height="70" as="geometry"/>
                </mxCell>
                <mxCell id="4" style="edgeStyle=none;html=1;" parent="1" source="2" target="3TavXXkqEo7pSJpgyG1O-108" edge="1">
                    <mxGeometry relative="1" as="geometry"/>
                </mxCell>
                <mxCell id="2" value="ArticleContainer" style="rounded=1;whiteSpace=wrap;html=1;" parent="1" vertex="1">
                    <mxGeometry x="340" y="330" width="140" height="70" as="geometry"/>
                </mxCell>
            </root>
        </mxGraphModel>
    </diagram>
</mxfile>